/* XPM */
static char *_6901efcc6004d99f751f0fc61b143acolJJGAcsoDaQIM6T[] = {
/* columns rows colors chars-per-pixel */
"256 32 6 1 ",
"  c None",
". c #322125",
"X c #2E2533",
"o c #9294A7",
"O c #C4B59F",
"+ c #E5E6C7",
/* pixels */
"                                                                                                              XXXX                           XXXXX                                                                                                              ",
"                                                                               XXXX                         XXOOOOXX                        XOOOOOXX                          XXX                                                                               ",
"                                              XXXX                          XXXOOOOX                      XXOOOOOOOOXX                     XOOOOOOOOX                       XXOOOXX                           XXXX                                              ",
"              XXXX                           XOOOOXXX                      XOOOOOOOOX                    XOOOOOOOOOOOoX                   XOOOOOOOOOOX                    XXOOOOOOOX                        XXOOOOX                           XXXX              ",
"             XOOOOX                         X+OOOOOooX                    XOOOOOOooooX                  XOOOo++++oooOooX                 XOOOOOOO+OOOOX                  XoooooOOOOOX                      X++OOOOOX                         XOOOOX             ",
"             XOOOOoX                       X+++++ooooX                   XOOOOOoooooooX                 XOOo++++oooooooX                XOOOOOOO+++OOooX                 XooooooOOOOOX                    X+++OO+++X                         XOOOOX             ",
"            X+++++oX                       X+++++oooooX                 XOOOOooooooooooX                XOo++++ooooooooX                XOOOoOO+++++oooX                XoooXooooOOOOX                    X+++++++++X                        X++++X             ",
"            X+++++XX                      X+++++ooXXooX                 XOOOoooooooXooooX              X+o++++ooooooooooX              XOOOoOO++++++OoooX               XooXooooooOOOOX                   X+X+++++++X                        X++++X             ",
"            X+++++XX                      X++++ooooXooX                 X+OOooooooooXoooX              X+++++oooooooooooX              XOOOoO++++++OOoooX               XooXooooooOOo+X                   X+X+++++++X                        X++++X             ",
"            X+++++XX                      X++++ooooXooX                X+++oooooooooXoooX              Xo+++OoooooooooooX              XOOOo++++++OOOOooX               XooXoooooooo+++X                  X+X+++++++X                        X++++X             ",
"            X++++oXX                     XOO+++ooooOooX                X+++oooooooooXoooX              X+++oooooooooooooX              XOOOX+++++OOoOOooX               XooXooooooo++++X                  X+X+++OOOOOX                       X++++X             ",
"            X++++oOX                     XOOOOooooo+ooX                X++ooooooooooXooX                X+oooooooooooooX                XO+Xo+++OOOOOOoX                 XooXooooo+++++X                  X+o+++OooooX                       X++++X             ",
"            X++++o+X                     XooOOooooo+oX                  X+oooooooooXOooX                XoooXooooooooooX                X+++Oo+OOOoOOOoX                 Xooooooo+++++oX                   X+++++ooooX                       X++++X             ",
"            Xo+++o+X                     XOOOooooo++oX                  X+oooXooooXOooX                  XoooXXoooooooX                  X++++OoooOOOOX                   Xooooo+++++ooX                   X+++++ooooX                       XooooX             ",
"            Xooooo+X                     XOOOOoooX+ooX                   XXoooXXXOooooX                  XooooooooooooX                   X++OOOOOOOOX                    XooooXX+++ooX                    X+++++ooooX                       XooooX             ",
"            XOOOOooX                     XOOOOooXOooX                     XooooooooooX                    XXooooooooXX                     XOOOOOOOOX                      Xoo+++++oooX                     X+o++ooooX                       XOOOOX             ",
"            XOOOOooX                      XOOOoooooX                       XoooooooXX                       XXooooXX                        XXXOOOXX                        X+++++ooXX                      X++++ooooX                       XOOOOX             ",
"            XOOOOooX                       XoooooooX                        XXoooXX                           XXXX                             XXX                           XX++oXX                         X++ooooX                        XOOOOX             ",
"            XOOOOoX                         XXXooXX                           XXX                                                                                              XXX                           X++oXXX                         XOOOOX             ",
"             XXoooX                            XX                                                                                                                                                             XXX                            XooooX             ",
"               XXX                                                                                                                                                                                                                            XXXX              ",
"                                                                                                                                                                                                                                                                ",
"                                                                                                                                                                                                                                                                ",
"                                                                                                                                                                                                                                                                ",
"                                                                                                                                                                                                                                                                ",
"                                                                                                                                                                                                                                                                ",
"             ......                          ......                           ....                            ....                            ....                            ....                           ......                          ......             ",
"           ..........                      ..........                      ..........                       ........                        ........                       ..........                      ..........                      ..........           ",
"          ............                     ..........                      ..........                      ..........                      ..........                      ..........                      ..........                     ............          ",
"           ..........                      ..........                      ..........                       ........                        ........                       ..........                      ..........                      ..........           ",
"             ......                          ......                           ....                            ....                            ....                            ....                           ......                          ......             ",
"                                                                                                                                                                                                                                                                "
};
