/* XPM */
static char *aWNvbnM4LTQyLTUw[] = {
/* columns rows colors chars-per-pixel */
"50 50 2 1 ",
"  c white",
". c None",
/* pixels */
"..................................................",
"..................................................",
"..................................................",
"..................................................",
"..................................................",
"..................................................",
"..................................................",
"..................................................",
"..................................................",
".......                                    .......",
"......                                      ......",
".....                                        .....",
"....                                          ....",
"...                                            ...",
"...                                            ...",
"...                                            ...",
"...                                            ...",
"...                 ..       ......            ...",
"...                ...      ........           ...",
"...               ....     ....   ...          ...",
"...              .....     ...     ..          ...",
"...              .. ..     ..      ..          ...",
"...             ... ..     ..      ..          ...",
"...            ...  ..            ...          ...",
"...            ..   ..           ...           ...",
"...           ...   ..          ....           ...",
"...          ...    ..         ...             ...",
"...          ...........     ....              ...",
"...          ...........    ...                ...",
"...                 ..     ...                 ...",
"...                 ..     ..                  ...",
"...                 ..     ..........          ...",
"...                 ..    ...........          ...",
"...                                            ...",
"...                                            ...",
"...                                            ...",
"...                                            ...",
"....                                          ....",
".....                                        .....",
"......                                      ......",
".......                                    .......",
"..................................................",
"..................................................",
"..................................................",
"..................................................",
"..................................................",
"..................................................",
"..................................................",
"..................................................",
".................................................."
};
